# xmcd
#
# Track frame offsets:
#	150
#	23235
#	39960
#	60120
#	79640
#	100445
#	123848
#	144088
#	166345
#	189168
#
# Disc length: 2826 seconds
#
# Revision: 1
# Processed by: cddbd v1.5.2PL0 Copyright (c) Steve Scherf et al.
# Submitted via: EZCDAudioConverter 8.0.2.1
#
DISCID=6a0b080a
DTITLE=Ngọc Lan, Kiều Nga, Tuyết Nhung - Tình Lỡ Trăm Năm
DYEAR=1990
DGENRE=Easy Listening
TTITLE0=Ngọc Lan - Tình Lỡ Trăm Năm
TTITLE1=Kiều Nga - Vĩnh biệt tình anh
TTITLE2=Tuyết Nhung - Chuyện buồn tình yêu
TTITLE3=Ngọc Lan - Tiếc thiêng
TTITLE4=Tuyết Nhung - Trả lại anh
TTITLE5=Ngọc Lan - Em đã đi rồi
TTITLE6=Kiều Nga - Tơ sầu
TTITLE7=Tuyết Nhung - Mưa qua thành phố
TTITLE8=Kiều Nga - Ảo ảnh
TTITLE9=Tuyết Nhung - Vẫn mãi yêu anh
EXTD=
EXTT0=
EXTT1=
EXTT2=
EXTT3=
EXTT4=
EXTT5=
EXTT6=
EXTT7=
EXTT8=
EXTT9=
PLAYORDER=
